# xmcd CD database file
#
# Track frame offsets:
#	150
#	29120
#	59305
#	92617
#	120372
#	138365
#	156447
#	177447
#	203000
#	230267
#	250157
#	267365
#	289525
#	309367
#
# Disc length: 4334 seconds
#
# Revision: 0
# Processed by: cddbd v1.5PL3 Copyright (c) Steve Scherf et al.
# Submitted via: CDex 1.51
#
DISCID=bf10ec0e
DTITLE=Various Artist - Verve 50th Anniversary
DYEAR=1994
DGENRE=Blues
TTITLE0=Wouldn't it be Loverly (Shirley Horn, I Love You, Paris)
TTITLE1=It's Easy to Remember (Shirley Horn, I Love You, Paris)
TTITLE2=Cogent (Rodney Kendrick, Dance World Dance)
TTITLE3=Dance, World, Dance (Rodney Kendrick, Dance World Dance)
TTITLE4=Viajeiro (Rosenberg Trio, Caravan)
TTITLE5=Pent-up House (w/ Stephanie Grappelli) (Rosenberg Trio, Caravan)
TTITLE6=Diagram 776 (Paradox, Broken Barricade)
TTITLE7=Infinite Moment (Paradox, Broken Barricade)
TTITLE8='Round Midnight (Cassandra Wilson, After the Beginning Again)
TTITLE9=Redbone (Cassandra Wilson, After the Beginning Again)
TTITLE10=Dale's Wail (Roy Eldridge, Little Jazz)
TTITLE11=Royal Garden Blues (Herb Ellis, Nothing But the Blues)
TTITLE12=Oh, Lady be Good (Stuff Smith, Dizzy Gillespie, Oscar Peterson)
TTITLE13=What a Little Moonlight Can Do (Billie Holiday, Recital by)
EXTD=YEAR: 1994
EXTT0=
EXTT1=
EXTT2=
EXTT3=
EXTT4=
EXTT5=
EXTT6=
EXTT7=
EXTT8=
EXTT9=
EXTT10=
EXTT11=
EXTT12=
EXTT13=
PLAYORDER=
